<svg xmlns="http://www.w3.org/2000/svg" width="113.949" height="62.95" viewBox="0 0 113.949 62.95">
  <g id="Talent_Spectrum_-_Logo" data-name="Talent Spectrum - Logo" transform="translate(-42.738 -18.616)">
    <g id="Group_8" data-name="Group 8">
      <path id="Path_1117" data-name="Path 1117" d="M99.73,47.9a8.242,8.242,0,0,1,.91-.75c.14-.11.32-.18.25-.43.43.19.43.19.39-.32a.163.163,0,0,1,.17-.06.805.805,0,0,0,.77-.51c.07-.12.13-.25.21-.36.09-.14.16-.32.37-.13a.123.123,0,0,0,.1.02,2.147,2.147,0,0,0,.46-.33c.1-.07.05-.19.05-.28v-.19a5.945,5.945,0,0,1,.39-2.64c.24-.65.47-1.31.71-1.96a.88.88,0,0,1,.11-.24,7.847,7.847,0,0,0,1.24-2.03,15.356,15.356,0,0,1,2.03-3.02,7.9,7.9,0,0,1,1.2-1.11,5.163,5.163,0,0,1,2.56-.98,1.5,1.5,0,0,1,.81.14c.17.08.35.15.53.22a.409.409,0,0,0,.49-.06c.13-.14.28-.08.41.02.21.17.42.36.61.53-.04.1-.09.14-.15.15-.31.01-.36.22-.36.46a.468.468,0,0,1-.16.44c-.11.07-.07.21-.06.32.04.52.04,1.04.04,1.56a.953.953,0,0,1-.06.41,10.482,10.482,0,0,0-.46,1.44,1.076,1.076,0,0,1-.27.53c-.1.08-.1.2-.12.31a15.367,15.367,0,0,1-3,6.28,1.862,1.862,0,0,1-.23.26.769.769,0,0,0-.28.51,1.206,1.206,0,0,1-.33.63,4.711,4.711,0,0,1-.6.58,3.24,3.24,0,0,0-.58.59,1.244,1.244,0,0,0-.14,1.39,2.4,2.4,0,0,0,.6.78,6.133,6.133,0,0,0,1.36.89,3.529,3.529,0,0,0,2.37.24,20.544,20.544,0,0,0,4.11-1.33,3.944,3.944,0,0,0,1-.61.268.268,0,0,1,.42.02l.05.05c.33.34.33.34.05.72-.09.12-.18.24-.28.36-.05.06-.11.12-.09.2.09.36-.24.43-.43.59-.08.07-.14-.01-.18-.07-.1-.14-.19-.09-.28.01a3.5,3.5,0,0,0-.58.75.828.828,0,0,1-.37.37c-.22.12-.43.27-.65.39-.14.08-.28.19-.46.08-.07-.04-.11.02-.16.05a9.786,9.786,0,0,1-2.35.94,1.912,1.912,0,0,1-.79,0c-.44-.06-.88-.07-1.32-.16a.8.8,0,0,0-.15-.03c-.23-.02-.31-.45-.62-.22a3.337,3.337,0,0,1-.73-.31c-.23-.11-.45-.23-.67-.36s-.46-.26-.69-.4c-.21-.14-.42-.28-.62-.43a5.579,5.579,0,0,1-1.99-2.67,2.716,2.716,0,0,0-.16-.35,2.224,2.224,0,0,1-.32-1,.247.247,0,0,0-.07-.21c-.13.05-.17.18-.24.27-.4.56-.79,1.11-1.19,1.67a.678.678,0,0,1-.3.28,2.18,2.18,0,0,0-1,.99c-.1.16.01.39-.08.5s-.27.18-.36.35a2.779,2.779,0,0,1-.98,1.09c-.3.19-.58.41-.86.62a5.071,5.071,0,0,1-1.09.61c-.14.06-.29.09-.35.26a.145.145,0,0,1-.19.09c-.22-.08-.24.11-.31.22-.3-.2-.3-.2-.53.04-.11.12-.21.25-.34.39-.08-.07-.01-.18-.06-.24a.209.209,0,0,0-.23-.08c-.01.01-.02.02-.02.03,0,.52-.36.7-.78.76a4.79,4.79,0,0,1-4.75-1.73,9.478,9.478,0,0,1-1.21-1.97,4.362,4.362,0,0,1-.28-.79c-.2-.73-.48-1.42-.63-2.16a.12.12,0,0,0-.12.11,3.185,3.185,0,0,1-1.02,1.7,28.363,28.363,0,0,1-2.75,2.39,5.49,5.49,0,0,1-1.49.75c-.39.15-.79.27-1.18.42a3.131,3.131,0,0,1-2.67-.26A4.661,4.661,0,0,1,76.81,52c-.55-.97-1.09-1.95-1.63-2.92-.21-.37-.37-.39-.65-.07-.62.69-1.23,1.38-1.86,2.06a5.487,5.487,0,0,1-1.22.97,3.679,3.679,0,0,1-.44.23c-.69.3-.8.28-1.31-.26a8.6,8.6,0,0,1-1.5-1.99,3.669,3.669,0,0,1-.34-2.06,5.456,5.456,0,0,1,.64-2.05c.69-1.34,1.36-2.69,2.04-4.03a1.061,1.061,0,0,0,.17-.65.55.55,0,0,1,.12-.35c.52-.9,1.04-1.8,1.56-2.69.08-.13.18-.24.27-.36a14.986,14.986,0,0,0,1.44-2.27c.2-.37.3-.43.72-.32.28.07.56.17.83.26.36.12.72.24,1.08.37a2.281,2.281,0,0,0,.78.13c.26,0,.32-.04.41-.29a.836.836,0,0,1,.12-.31c.1,0,.16.07.24.1a.476.476,0,0,0,.5-.06.55.55,0,0,0,.09-.07c.61-.5.52-.45,1.25-.19a1.306,1.306,0,0,1,.21.08,1.089,1.089,0,0,0,1.05-.01,1.191,1.191,0,0,1,.85-.1c.28.07.32.17.21.43a15.265,15.265,0,0,1-1.13,2.11c-.21.33-.5.6-.74.91a8.065,8.065,0,0,0-1.51,3.08c-.27,1.08-.57,2.15-.86,3.23a12.986,12.986,0,0,0-.34,2.32,1.554,1.554,0,0,0,.06.64,5.754,5.754,0,0,1,.14.94,6.233,6.233,0,0,0,.55,1.73,2.121,2.121,0,0,0,.33.51.922.922,0,0,0,1.21.3,9.053,9.053,0,0,0,1.28-.74,3.3,3.3,0,0,1,1.06-.57.717.717,0,0,0,.29-.17,30.27,30.27,0,0,0,3.49-3.49c.15-.19.29-.38.44-.57A1.5,1.5,0,0,0,87,45.2a1.265,1.265,0,0,1,.28-.61,1.824,1.824,0,0,0,.42-.96c.33-1.96.87-3.87,1.32-5.81a1.3,1.3,0,0,1,.17-.38,10.39,10.39,0,0,0,1.13-2.23c.25-.68.56-1.33.87-1.98.48-1.02.95-2.04,1.43-3.06a24.71,24.71,0,0,1,1.66-3.03c.62-.97,1.25-1.94,1.87-2.91a1.084,1.084,0,0,1,.45-.45.544.544,0,0,0,.36-.49,2.821,2.821,0,0,1,.68.31,1.44,1.44,0,0,0,.61.18,7.217,7.217,0,0,1,2.23.59.474.474,0,0,1,.19.12,2.59,2.59,0,0,0,1.05.73,2.224,2.224,0,0,1,.6.36.459.459,0,0,1-.46.13c-.17-.02-.26.05-.18.21a.362.362,0,0,1-.03.29c-.07.23-.16.46-.21.69a2.7,2.7,0,0,1-.48,1.25.5.5,0,0,0-.09.25,12.182,12.182,0,0,1-1.72,4.15c-.58.89-1.05,1.85-1.58,2.77-.21.37-.45.73-.65,1.11A7.918,7.918,0,0,1,95.73,38c-1,1.13-1.91,2.33-2.83,3.52-.52.67-1.09,1.3-1.57,2a5.22,5.22,0,0,0-.82,2.34,15.273,15.273,0,0,0-.08,2.62,2.3,2.3,0,0,0,.15.78c.27.74.55,1.47.83,2.2a2.311,2.311,0,0,0,.32.6.366.366,0,0,0,.52.16c.14-.05.28-.12.42-.18s.28-.13.39.05c.07.12.17.06.27.01.25-.14.51-.29.76-.43.21-.11.42-.23.64-.33.13-.06.27-.14.43-.02.11.08.2,0,.25-.08.11-.17.2-.35.32-.52.1-.16.18-.4.45-.17.08.07.2-.03.25-.11a1.664,1.664,0,0,1,.7-.56,14.987,14.987,0,0,0,2.03-1.53c.16-.14.34-.27.5-.4a.6.6,0,0,1,.08.08c-.01.03-.03.07-.04.1-.03.07-.1.14-.01.2.12.07.14-.05.19-.12a.826.826,0,0,0,.07-.13c.05-.16-.06-.16-.16-.15C99.76,47.93,99.75,47.91,99.73,47.9Zm-28.83.67a2.192,2.192,0,0,0,.34-.58.481.481,0,0,1,.38-.32.9.9,0,0,0,.55-.37c.45-.58.93-1.13,1.39-1.71a16.553,16.553,0,0,0,1.39-2.03,1.647,1.647,0,0,0-.8-2.23c-.26-.12-.26-.12-.41.13-.33.57-.65,1.14-.98,1.71a29.735,29.735,0,0,0-1.45,2.66,6.958,6.958,0,0,0-.68,2.08A.664.664,0,0,0,70.9,48.57ZM111.53,36.6c-.01-.47-.14-.54-.56-.31a.952.952,0,0,0-.28.25,4.693,4.693,0,0,0-.49.68,7.142,7.142,0,0,0-.78,2.29,1.11,1.11,0,0,1-.17.45,10.76,10.76,0,0,0-.96,2.3.359.359,0,0,0-.02.11c0,.08-.04.19.07.23a.33.33,0,0,0,.29-.02.364.364,0,0,0,.12-.15,25.715,25.715,0,0,0,1.51-2.59,9.591,9.591,0,0,1,1.07-2.09.322.322,0,0,0,.06-.21c.01-.27-.06-.56.14-.8C111.55,36.72,111.53,36.65,111.53,36.6Zm-17.37-.99c.19.02.23-.12.3-.21a42.349,42.349,0,0,0,2.4-3.64,2.183,2.183,0,0,0,.25-.59,2.987,2.987,0,0,1,.46-.99l.24-.39a.281.281,0,0,0-.05-.38c-.1-.11-.21-.04-.31,0a.919.919,0,0,0-.47.42,4.316,4.316,0,0,0-.34.68,5.917,5.917,0,0,1-.52.81c-.14.28-.13.63-.29.93-.51.99-1.01,1.98-1.5,2.98A.781.781,0,0,0,94.16,35.61ZM74.25,40.67c.06.01.09.02.1.02a4,4,0,0,0,1.73-1.31.755.755,0,0,0,.16-.46c.01-.29-.18-.42-.45-.31a1.162,1.162,0,0,0-.55.5c-.21.32-.41.64-.61.96C74.51,40.27,74.38,40.47,74.25,40.67Zm37.4-5a.316.316,0,0,0,.35.17A.279.279,0,0,0,111.65,35.67Z" fill="#fe7235"/>
      <path id="Path_1118" data-name="Path 1118" d="M126.98,41.5c-.18.42-.34.79-.5,1.16a30.463,30.463,0,0,0-1.39,3.41.7.7,0,0,0-.01.55.436.436,0,0,1-.02.4,1.9,1.9,0,0,1-.09.21,8.654,8.654,0,0,0-.84,2.86c-.03.2,0,.48-.33.52-.06.01-.04.11-.01.17a1.406,1.406,0,0,1,.03.86c-.1.58-.24,1.16-.37,1.74a.761.761,0,0,1-.16.34,2.452,2.452,0,0,0-.43.71.283.283,0,0,1-.39.2c-.3-.1-.63-.2-.72-.62-.36.2-.61.04-.84-.24-.37-.46-.75-.92-1.13-1.38a.475.475,0,0,1-.12-.38.583.583,0,0,0-.14-.56c-.09-.08-.07-.21-.09-.32a19.105,19.105,0,0,0-.24-2.15,15.214,15.214,0,0,1-.09-3.09c-.01-.37,0-.73-.03-1.1a15.617,15.617,0,0,1,.09-2.27c.06-.97.18-1.94.28-2.91.04-.42.11-.83.16-1.24a.215.215,0,0,1,.17-.22,1.47,1.47,0,0,1,1.5.38c.13.14.27.27.4.4a.853.853,0,0,0,.56.29.494.494,0,0,1,.43.33,2.087,2.087,0,0,1,.19.81,12.527,12.527,0,0,1-.19,2.45,4.359,4.359,0,0,1-.19.58c-.03.1-.07.18.05.26a.211.211,0,0,0,.3-.05,3.029,3.029,0,0,0,.56-.72c.39-.68.76-1.37,1.1-2.08a.543.543,0,0,1,.21-.26.558.558,0,0,0,.29-.46,1.488,1.488,0,0,1,.2-.53,3.4,3.4,0,0,0,.36-.88.237.237,0,0,1,.11-.19c.21-.1.29-.31.4-.49.28-.49.56-.99.83-1.49a.821.821,0,0,1,.5-.43c.13-.04.25-.06.35.05a.427.427,0,0,0,.49.09l.77-.21a.366.366,0,0,1,.35.04c.31.2.63.38.95.56a.445.445,0,0,1,.24.36c.06.46.13.93.21,1.39a4.488,4.488,0,0,1-.08,1.55,19.317,19.317,0,0,1-.57,2.59,7.261,7.261,0,0,0-.22,1.61c-.05.49-.07.98-.1,1.48a4.133,4.133,0,0,1-.11.86,3.445,3.445,0,0,0,.04,1.06,4.374,4.374,0,0,0,.21,1.19,2.137,2.137,0,0,0,.16.39c.18.32.36.39.69.22.61-.33,1.24-.64,1.85-.96a13.242,13.242,0,0,0,1.93-1.41,33.481,33.481,0,0,0,2.91-2.67c.19-.19.19-.19-.03-.37-.33-.26-.7-.45-1.06-.7a.589.589,0,0,0,.01-.75.25.25,0,0,1-.03-.25.306.306,0,0,0-.08-.35.35.35,0,0,1-.05-.39,1.26,1.26,0,0,1,.47-.75c.12-.07.2-.19.35-.07.06.05.15,0,.22-.03.24-.09.47-.18.71-.26.11-.04.22-.14.35-.02.06.05.11.01.15-.05s.11-.11.16-.06c.18.2.28.01.39-.08.07-.05.15-.16.23-.09.18.16.27.04.41-.07a1.439,1.439,0,0,1,.64-.22c.1-.02.2-.03.3-.04.39-.05.41-.05.42-.45.02-.73.02-1.47.03-2.2a.486.486,0,0,0-.15-.33.59.59,0,0,1-.16-.52.978.978,0,0,0-.05-.48,2.543,2.543,0,0,1,.05-1.13c.03-.19.16-.39-.07-.55,0-.49-.29-.96-.07-1.45a.753.753,0,0,0,.04-.3,15.528,15.528,0,0,1,.15-1.93,2.714,2.714,0,0,0,0-.57c-.08-.71-.05-1.42-.06-2.12a.972.972,0,0,1,.14-.54,1.3,1.3,0,0,0,.2-1.01,4.524,4.524,0,0,1-.02-1.04.081.081,0,0,1,.11-.04c.36.03.36.03.43-.33.01-.02.01-.05.02-.07.09-.18-.06-.44.14-.55a1.926,1.926,0,0,0,.49-.26c.07-.07.14,0,.21.03.16.08.31.17.46.26a1.917,1.917,0,0,0,.55.24c.13.03.24.11.1.27a.115.115,0,0,0-.01.17.1.1,0,0,0,.16.01c.15-.19.32-.1.48-.03a1.889,1.889,0,0,1,.45.28c.16.11.01.27.08.36s.24.09.27.27a1.39,1.39,0,0,0,.3.65c.21.24.15.58.34.82.04.06-.03.11-.09.14-.25.15-.49.32-.74.46a.654.654,0,0,0-.34.49c-.2.84-.25,1.7-.42,2.54a5.4,5.4,0,0,0-.04.98,1.109,1.109,0,0,1-.14.69c-.04.06-.05.13.02.15.2.07.17.23.17.38-.02,1.48-.04,2.96.02,4.44,0,.05.02.12,0,.15-.19.21-.09.45-.09.68,0,.25.07.35.31.39a1.137,1.137,0,0,0,.45-.01c.95-.15,1.9-.3,2.84-.47a.812.812,0,0,1,.78.15.175.175,0,0,0,.27,0c.02-.02.04-.03.06-.05a.974.974,0,0,1,1.28-.17,1.568,1.568,0,0,0,.95.12,7.011,7.011,0,0,1,.8-.05.67.67,0,0,1,.53.15.267.267,0,0,0,.4,0,.877.877,0,0,1,.65-.16,3.907,3.907,0,0,1,1.17.14c-.11.25-.39.3-.56.54.33.01.61.01.9.02.11,0,.23,0,.34.01a.152.152,0,0,1,.14.15c.02.1-.03.14-.12.15h-.04c-.11.01-.24.06-.21.17.03.14.17.11.29.07a.369.369,0,0,0,.14-.07c.24-.23.52-.06.78-.06.07,0,.18.07.15.13-.04.08-.08.24-.24.14-.07-.05-.15-.07-.17.04-.02.07.07.08.13.11.18.08.41-.01.6.19a1.828,1.828,0,0,0-.82.29.131.131,0,0,1-.1.03,1.171,1.171,0,0,0-.81.25.419.419,0,0,1-.21.08.545.545,0,0,0-.43.21,1.155,1.155,0,0,1-.79.31c-.17.03-.29-.08-.44-.16-.06.15-.08.31-.23.41a.781.781,0,0,1-.47.09h-.23c-.15,0-.26,0-.35.19s-.29.31-.4.5a.2.2,0,0,1-.22.11,2.778,2.778,0,0,0-1.07.19c-.39.11-.77.24-1.16.36a1.133,1.133,0,0,1-.58.05.7.7,0,0,0-.76.31c-.06.11-.15.17-.28.09-.1-.06-.2,0-.28.04-.17.09-.33.18-.49.28a1.989,1.989,0,0,1-.89.32.907.907,0,0,0-.83.61c-.06.15-.14.29-.22.46-.17-.1-.2-.3-.37-.42v1.4c0,.18.17.17.26.25.03.09-.03.17-.06.24a1.082,1.082,0,0,0,.01.81c.09.22.26.46.04.7.04.1.14.06.2.1.24.15.24.14.16.41a1.056,1.056,0,0,0,.15,1.04c.09.12.2.21.33.05.05-.06.11-.12.19-.05.19.14.3.01.42-.1a3.936,3.936,0,0,0,.54-.68c.18-.27.37-.55.56-.82a1.341,1.341,0,0,1,.31-.33c.01.3.08.56-.18.75a.2.2,0,0,0-.09.16,1.441,1.441,0,0,1-.27.73c-.04.08-.12.16-.06.24s.16.03.25.02c.04,0,.08-.02.12.04a4.372,4.372,0,0,1-.36.8c-.05.1-.1.2-.15.31-.02.05-.01.13.04.12.32-.01.12.15.08.25-.01.03-.05.06-.06.1-.22.64-.83.76-1.35,1-.14.06-.24-.03-.29-.16-.12-.28-.14-.29-.34-.14-.12.09-.18.04-.26-.02A5.482,5.482,0,0,1,142.57,49a1.509,1.509,0,0,0-.33-.67.435.435,0,0,1-.12-.34,4.878,4.878,0,0,0-.37-1.81,7.867,7.867,0,0,1-.39-1.42c-.02-.09.03-.22-.1-.27s-.21.06-.27.15c-.3.39-.61.78-.88,1.19a6.626,6.626,0,0,1-.9,1.07.606.606,0,0,0-.22.3,1.376,1.376,0,0,1-.41.67,28.606,28.606,0,0,1-2.39,2.28,20.313,20.313,0,0,1-1.83,1.53,4.726,4.726,0,0,1-2,.87,2.927,2.927,0,0,1-2.52-.66,6.186,6.186,0,0,1-1.27-1.6,10.539,10.539,0,0,1-1.35-3.36.558.558,0,0,1-.03-.22,1.968,1.968,0,0,0-.16-1.22.576.576,0,0,1,.02-.48,1.409,1.409,0,0,0,.13-.81,8.418,8.418,0,0,1-.01-.87,1.047,1.047,0,0,1,.05-.3A1.8,1.8,0,0,0,126.98,41.5Zm23.4-2.26c-.02-.07-.03-.16-.13-.16-.06,0-.14.03-.14.1-.01.12.1.12.18.14C150.34,39.34,150.38,39.31,150.38,39.24Zm2.94.31a.982.982,0,0,0,.48.23C153.65,39.59,153.53,39.47,153.32,39.55ZM141.1,25.44a.224.224,0,0,0,.28-.1c.01-.01-.01-.05-.03-.06C141.24,25.25,141.17,25.31,141.1,25.44Zm13.62,14.32c.05.05.09.02.14,0s.13-.05.08-.13-.11-.02-.16.01S154.7,39.7,154.72,39.76Zm-1.13-.46c.01-.02.04-.04.06-.07l-.06-.03c-.04,0-.07.01-.08.05S153.53,39.32,153.59,39.3Z" fill="#fe7235"/>
      <path id="Path_1119" data-name="Path 1119" d="M53.8,47.1a.142.142,0,0,0,.01-.14,2.829,2.829,0,0,1-.23-1.11c-.16-1.48-.31-2.97-.46-4.45a.22.22,0,0,0-.01-.08,1.583,1.583,0,0,1-.14-.91.614.614,0,0,0-.16-.42.42.42,0,0,1-.06-.43,1.393,1.393,0,0,0,.07-.7c-.13-1.37-.24-2.75-.36-4.12a1.764,1.764,0,0,1,0-.23,12.6,12.6,0,0,0-.13-3.36,10.7,10.7,0,0,1-.2-2.11c.01-1.09-.01-2.18-.02-3.27,0-.47-.07-.56-.54-.66-.33-.08-.67-.14-1-.23-.18-.05-.41-.02-.48-.29-.03-.1-.17-.09-.22-.01-.16.24-.36.14-.54.09-.64-.2-1.28-.41-1.92-.61-.43-.14-.54-.06-.53.41a2.774,2.774,0,0,0,.3,1.09c.08.18.17.34-.1.46-.17.07-.13.26-.09.41a13.378,13.378,0,0,0,.54,1.62c.18.49.37.97.56,1.45.13.32.12.66.23,1.01a.769.769,0,0,1-.3-.33c-.42-.6-.83-1.21-1.23-1.82a2.28,2.28,0,0,1-.29-.61,3.588,3.588,0,0,0-.5-.84c-.03-.04-.1-.08-.12-.07-.21.13-.25-.05-.32-.17l-1.11-1.86a8.269,8.269,0,0,0-.65-.79,2.992,2.992,0,0,1-.58-1.01c-.11-.37-.28-.73-.41-1.1-.1-.28.02-.46.3-.39a3.857,3.857,0,0,0,1.79-.18,3.591,3.591,0,0,1,1.46-.02,2.076,2.076,0,0,0,1.05-.04.767.767,0,0,0,.34-.16.935.935,0,0,1,.73-.23c.95-.01,1.9-.04,2.85,0a.429.429,0,0,0,.27-.04,2.1,2.1,0,0,0-.39-1.04.789.789,0,0,1-.15-.68.607.607,0,0,1,.59-.5,6.453,6.453,0,0,1,2.51.23.849.849,0,0,0,.73-.01,2.329,2.329,0,0,1,.51-.11.429.429,0,0,0,.08.54,2.782,2.782,0,0,0,.21.27.746.746,0,0,1,.18.56c-.03.39.09.51.49.48.71-.05,1.41-.13,2.12-.17,1-.06,2-.04,3-.05a2.537,2.537,0,0,0,.82-.11,2.9,2.9,0,0,1,.83-.1l2.88-.12a10.713,10.713,0,0,1,2.19.15,4.893,4.893,0,0,0,1.21-.06,2.551,2.551,0,0,1,1.19.09,6.692,6.692,0,0,0,2.09.3,2.984,2.984,0,0,1,.42.04c.14.02.28.05.25.25a.345.345,0,0,1-.31.33.592.592,0,0,1-.29-.07c-.38-.14-.39-.13-.62.27a3.5,3.5,0,0,0,1.11.15.192.192,0,0,1,.2.06.3.3,0,0,0,.47.04c.21-.15.34-.08.48.08a3.179,3.179,0,0,0,.26.26c-.42.11-.83.11-1.24.18a2.265,2.265,0,0,0-.58.16.611.611,0,0,0-.34.29c-.08.19-.11.39-.4.3-.08-.02-.11.08-.1.17s.12.21-.06.28c-.23.09-.38.07-.51-.09-.01-.02-.04-.02-.07-.03-.25.22-.5.45-.74.67-.11-.05-.04-.11-.04-.17a.167.167,0,0,0-.13-.2c-.1-.02-.12.08-.15.14-.2.35-.2.35-.58.26l-.26-.06c-.3-.07-.34-.02-.24.35-.43-.06-.9.19-1.18-.3a.117.117,0,0,0-.12.06.919.919,0,0,1-.87.57c-.41.06-.83.08-1.25.12a.577.577,0,0,0-.45.15.145.145,0,0,1-.23.01.662.662,0,0,0-1.02,0,.381.381,0,0,1-.38.1,1.565,1.565,0,0,0-1.33.24c.04-.27-.1-.3-.29-.26a2.333,2.333,0,0,0-.72.32c-.09.06-.14.06-.2-.06-.14-.25-.27-.25-.42,0-.04.06-.03.15-.11.2a1.032,1.032,0,0,1-.44-.26.26.26,0,0,0-.34-.03,2.643,2.643,0,0,1-.37.2c-.06.03-.13.09-.17.08-.2-.11-.29.01-.39.15-.07.09-.12.07-.39-.11-.02.01-.06.02-.06.03a.34.34,0,0,1-.39.34c-.23-.01-.45.04-.68.05a1.3,1.3,0,0,0-.48.11.48.48,0,0,0-.33.53c.03.43-.07.87-.01,1.29a6.3,6.3,0,0,1-.24,1.63,3.886,3.886,0,0,0-.04.49c.01.82.03,1.65-.01,2.47a.95.95,0,0,1-.26.72c-.19.18-.11.45-.11.69a.31.31,0,0,0,.02.07c.38,0,.17.27.18.42a3.36,3.36,0,0,0,.06.63,1.338,1.338,0,0,1-.03.79,12.023,12.023,0,0,0-.38,1.97,2.954,2.954,0,0,0-.02.42,1.209,1.209,0,0,1-.1.59.58.58,0,0,0-.04.37.247.247,0,0,0,.24.21c.11.01.08.1.08.18-.02.51-.03,1.01-.06,1.52-.07,1.28-.06,2.56-.03,3.84a7.091,7.091,0,0,0,.11,1.13,1.942,1.942,0,0,0,.25.71.567.567,0,0,1-.04.76,2.142,2.142,0,0,0-.13.19.553.553,0,0,0-.07.5c.12.41.21.83.32,1.25a.456.456,0,0,1-.11.52.43.43,0,0,0-.13.34,11.5,11.5,0,0,0,.21,2.68,6.184,6.184,0,0,1,.09,1.36.727.727,0,0,0,.08.44.676.676,0,0,1,.06.71c-.06.16-.1.33.13.41a3.875,3.875,0,0,0,.43-1.35.47.47,0,0,1,.27.04c.16.04.19.15.16.29s-.06.27-.08.41a.517.517,0,0,0,.08.4q.135.2.24-.03a3.049,3.049,0,0,1,.19-.41c.27.14.27.14.57-.1h0a7.3,7.3,0,0,1-.06.94,7.135,7.135,0,0,1-.24,1.72.353.353,0,0,1-.18.23.788.788,0,0,1-.88-.09,9.935,9.935,0,0,1-1.46-1.89.149.149,0,0,1-.03-.07c-.04-.71-.54-1.29-.58-2.01a1.3,1.3,0,0,0-.36-.9c-.07-.06-.07-.16-.09-.25-.25-1.32-.5-2.63-.74-3.95a2.132,2.132,0,0,1,.09-1.09c.1-.3.09-.31-.16-.51ZM71.9,22.25c-.13.04-.23.11-.21.27.01.09,0,.18.13.18.16,0,.28-.08.26-.2C72.06,22.4,72.04,22.28,71.9,22.25Zm-2.22.7c.07-.03.1-.11.13-.19.01-.05-.02-.11-.08-.09a.209.209,0,0,0-.13.2C69.59,22.91,69.62,22.94,69.68,22.95Zm1.2-.4a.262.262,0,0,0-.29.21.064.064,0,0,0,.06.08c.13-.01.18-.11.22-.21C70.88,22.62,70.87,22.6,70.88,22.55Zm.17-1.45a.076.076,0,0,0,.08.06c.01,0,.03-.05.02-.05a.27.27,0,0,0-.08-.07A.142.142,0,0,1,71.05,21.1Z" fill="#fe7235"/>
      <path id="Path_1120" data-name="Path 1120" d="M57.13,54.09a.634.634,0,0,1-.04-.79,2.044,2.044,0,0,0,.31-1.19v-.68A2.443,2.443,0,0,1,57.13,54.09Z" fill="#fe7235"/>
      <path id="Path_1121" data-name="Path 1121" d="M146.91,52.07c-.12.13-.23.26-.35.39a.339.339,0,0,1-.38.08c-.08-.03-.17-.08-.17-.18s.1-.1.17-.12c.23-.08.45-.14.68-.21C146.87,52.03,146.89,52.05,146.91,52.07Z" fill="#fe7235"/>
      <path id="Path_1122" data-name="Path 1122" d="M75.04,20.6a5.048,5.048,0,0,1-.95.2c-.11.03-.17-.02-.16-.14s.03-.21.17-.19A3.95,3.95,0,0,0,75.04,20.6Z" fill="#fe7235"/>
      <path id="Path_1123" data-name="Path 1123" d="M56.54,48.07a1.089,1.089,0,0,1,.35.38c.14.23.13.24-.14.47C56.68,48.65,56.62,48.4,56.54,48.07Z" fill="#fe7235"/>
      <path id="Path_1124" data-name="Path 1124" d="M144.57,45.21c.19.41.19.41-.16.47A1.014,1.014,0,0,1,144.57,45.21Z" fill="#fe7235"/>
      <path id="Path_1125" data-name="Path 1125" d="M57.5,50.9c-.01.07.03.19-.1.2-.1.01-.1-.1-.1-.17s-.03-.2.1-.21C57.51,50.72,57.5,50.82,57.5,50.9Z" fill="#fe7235"/>
      <path id="Path_1126" data-name="Path 1126" d="M73.13,22.58c.08.01.17,0,.17.11-.01.08-.08.08-.15.08s-.16,0-.16-.11C73,22.58,73.08,22.59,73.13,22.58Z" fill="#fe7235"/>
      <path id="Path_1127" data-name="Path 1127" d="M53.79,47.09v.15c0,.07,0,.17-.11.14s-.07-.12-.06-.19c.02-.09.1-.08.17-.1Z" fill="#fe7235"/>
      <path id="Path_1128" data-name="Path 1128" d="M56.61,47.74a.108.108,0,0,1-.11-.08c-.01-.06.02-.1.08-.09a.106.106,0,0,1,.09.1C56.68,47.71,56.66,47.73,56.61,47.74Z" fill="#fe7235"/>
      <path id="Path_1129" data-name="Path 1129" d="M57.33,50.54a.07.07,0,0,1-.09.04.108.108,0,0,1-.08-.11.056.056,0,0,1,.07-.06C57.29,50.42,57.32,50.47,57.33,50.54Z" fill="#fe7235"/>
      <path id="Path_1130" data-name="Path 1130" d="M58.51,54.93l.03-.09c.01.01.02.02.02.03,0,.03-.01.06-.05.06Z" fill="#fe7235"/>
      <path id="Path_1131" data-name="Path 1131" d="M99.65,47.97a.55.55,0,0,0,.09-.07c.01.02.03.03.04.05-.01.03-.03.07-.04.1A.817.817,0,0,1,99.65,47.97Z" fill="#fe7235"/>
      <path id="Path_1132" data-name="Path 1132" d="M99.73,48.05c.01-.03.03-.07.04-.1.11,0,.22-.01.16.15a.539.539,0,0,1-.07.13c-.04.07-.07.19-.19.12-.09-.06-.02-.13.01-.2A.927.927,0,0,1,99.73,48.05Z" fill="#fe7235"/>
      <path id="Path_1133" data-name="Path 1133" d="M111.65,35.67a.288.288,0,0,1,.35.17A.329.329,0,0,1,111.65,35.67Z" fill="#fe7235"/>
      <path id="Path_1134" data-name="Path 1134" d="M150.38,39.24a.072.072,0,0,1-.09.08c-.08-.02-.19-.02-.18-.14.01-.06.09-.09.14-.1C150.35,39.09,150.37,39.17,150.38,39.24Z" fill="#fe7235"/>
      <path id="Path_1135" data-name="Path 1135" d="M153.32,39.55c.22-.08.34.04.48.23A.94.94,0,0,1,153.32,39.55Z" fill="#fe7235"/>
      <path id="Path_1136" data-name="Path 1136" d="M141.1,25.44c.07-.13.14-.19.25-.16.01,0,.03.05.03.06A.236.236,0,0,1,141.1,25.44Z" fill="#fe7235"/>
      <path id="Path_1137" data-name="Path 1137" d="M154.72,39.76c-.02-.06.01-.09.05-.12s.11-.09.16-.01-.03.1-.08.13A.093.093,0,0,1,154.72,39.76Z" fill="#fe7235"/>
      <path id="Path_1138" data-name="Path 1138" d="M153.59,39.3c-.06.01-.08-.01-.08-.05s.04-.05.08-.05c.02,0,.04.02.06.03A.506.506,0,0,1,153.59,39.3Z" fill="#fe7235"/>
      <path id="Path_1139" data-name="Path 1139" d="M71.9,22.25c.14.03.15.15.18.26s-.1.2-.26.2c-.14,0-.12-.09-.13-.18C71.67,22.36,71.77,22.29,71.9,22.25Z" fill="#fe7235"/>
      <path id="Path_1140" data-name="Path 1140" d="M69.68,22.95c-.07-.01-.09-.04-.09-.08.01-.09.04-.18.13-.2a.065.065,0,0,1,.08.09A.256.256,0,0,1,69.68,22.95Z" fill="#fe7235"/>
      <path id="Path_1141" data-name="Path 1141" d="M70.88,22.55c0,.05,0,.06-.01.07-.05.1-.1.2-.22.21a.064.064,0,0,1-.06-.08A.273.273,0,0,1,70.88,22.55Z" fill="#fe7235"/>
      <path id="Path_1142" data-name="Path 1142" d="M71.05,21.1l.03-.06a.27.27,0,0,1,.08.07c.01.01-.01.05-.02.05C71.09,21.17,71.07,21.14,71.05,21.1Z" fill="#fe7235"/>
    </g>
    <g id="Group_9" data-name="Group 9">
      <path id="Path_1143" data-name="Path 1143" d="M153.2,71a.732.732,0,0,0-.17.37c-.39,1.39-.79,2.77-1.29,4.12-.17.45-.26.92-.39,1.39-.18.66-.37,1.31-.55,1.97a.364.364,0,0,1-.36.31,12.741,12.741,0,0,1-2.05.09c-.21-.01-.28-.06-.33-.28-.26-1.13-.71-2.21-1.04-3.33-.43-1.44-.86-2.88-1.37-4.3a.954.954,0,0,0-.29-.51c.01,0-.01.03-.01.07-.03,1.2-.14,2.4-.06,3.6.06,1.04.11,2.07.17,3.11a24.829,24.829,0,0,1-.03,3.45c-.01.06-.01.13-.02.19s-.05.14-.12.11a1.8,1.8,0,0,0-.86.07,2.855,2.855,0,0,1-1.09,0c-.35-.07-.7-.11-1.05-.15-.14-.01-.21-.05-.2-.2.01-.11,0-.23,0-.34.06-1.51,0-3.01-.03-4.52-.02-.9-.05-1.8-.06-2.7-.01-1.59.01-3.19-.02-4.78-.02-.81.05-1.62.01-2.43-.03-.63-.04-1.26-.09-1.89a14.981,14.981,0,0,1,0-2.01c.01-.28.02-.28.31-.28a6.376,6.376,0,0,0,.98-.09,6.146,6.146,0,0,1,2.34.06,1.758,1.758,0,0,0,.56.07c.22-.02.32.1.37.29.1.4.21.8.33,1.19.26.86.52,1.71.73,2.59.41,1.72.97,3.4,1.43,5.11.13.46.23.93.36,1.44a2.172,2.172,0,0,0,.22-.55c.41-1.17.58-2.41.98-3.58.44-1.27.67-2.59,1.06-3.87a13.457,13.457,0,0,0,.63-2.42.223.223,0,0,1,.18-.21c.11-.03.21-.09.32-.11a10.562,10.562,0,0,1,3.59.11c.33.07.34.08.32.42-.02.32-.03.63-.07.95a6.991,6.991,0,0,0,.03,1.21c.01.38.03.76.03,1.14-.03,1.78-.04,3.57,0,5.35.02,1.08-.01,2.15-.02,3.23-.01.75.08,1.49,0,2.24.16.44-.01.89.06,1.34a9.319,9.319,0,0,1,.04,1.4c0,.46.01.91,0,1.37-.01.5-.01.5-.49.6a6.681,6.681,0,0,1-2.56-.03.267.267,0,0,1-.25-.23,3.57,3.57,0,0,1-.09-.87c-.01-3.01-.03-6.03-.04-9.04A.488.488,0,0,0,153.2,71Z" fill="#fff"/>
      <path id="Path_1144" data-name="Path 1144" d="M117.25,77.43V80.7a2.175,2.175,0,0,1-.01.26.564.564,0,0,1-.5.51,6.075,6.075,0,0,1-2.04-.06c-.28-.05-.64-.05-.82-.25s-.06-.56-.06-.85a14.46,14.46,0,0,1,.07-1.86,2.424,2.424,0,0,0-.02-.76,2.72,2.72,0,0,1-.02-.57c.05-1.96.09-3.92.04-5.89v-.3c.13-2.69.14-5.39.1-8.09v-.27c.01-.49.05-.56.53-.58,1.23-.05,2.46-.05,3.68.02a15.941,15.941,0,0,1,3,.42,3.37,3.37,0,0,1,2.4,2.2,5.919,5.919,0,0,1,.38.9,4.108,4.108,0,0,1,.13,1.35,5.542,5.542,0,0,0,.01.91,7.6,7.6,0,0,1-.22,2.07,4.11,4.11,0,0,1-1.4,2.37c-.27.23-.52.49-.8.7a.266.266,0,0,0-.12.35c.12.37.21.76.35,1.12.39,1.03.7,2.08,1.08,3.12.39,1.08.77,2.17,1.16,3.25a.794.794,0,0,1,.06.22c.05.31,0,.37-.31.44a4.634,4.634,0,0,1-2.03-.03,2.293,2.293,0,0,1-.94-.26c-.23-.19-.23-.6-.34-.9-.66-1.88-1.15-3.82-1.83-5.7a2.2,2.2,0,0,0-.32-.8c-.2-.2-.55-.01-.83-.06-.31-.06-.29.04-.3.28C117.28,75.13,117.21,76.28,117.25,77.43Zm3.45-9.65c-.01-.44.04-.81,0-1.17a1.129,1.129,0,0,0-1.11-1.12c-.68-.09-1.37.03-2.05-.02-.11-.01-.16.05-.15.16v.23c-.01,1.24.05,2.48-.04,3.72a2.966,2.966,0,0,0,.03.42.179.179,0,0,0,.22.19c.39-.01.79,0,1.18-.02a4,4,0,0,0,1.23-.23.839.839,0,0,0,.59-.71A10.826,10.826,0,0,0,120.7,67.78Z" fill="#fff"/>
      <path id="Path_1145" data-name="Path 1145" d="M137.97,67.99c-.01,1.59-.05,3.19-.01,4.78.02.76-.02,1.52-.05,2.27a14.621,14.621,0,0,0,.02,1.75,1.551,1.551,0,0,1-.1.74,2.165,2.165,0,0,0-.14.67,2.824,2.824,0,0,1-.69,1.53,4.673,4.673,0,0,1-1.61,1.24,6.552,6.552,0,0,1-3.44.51,5.361,5.361,0,0,1-2.27-.79,4.049,4.049,0,0,1-.81-.74,7.09,7.09,0,0,1-.59-.74,3.6,3.6,0,0,1-.63-1.92,10.787,10.787,0,0,1-.02-2.54,2.571,2.571,0,0,0-.02-.68,2.359,2.359,0,0,1-.01-.75,4.224,4.224,0,0,0-.01-.71c-.05-1.71-.03-3.42.04-5.13.02-.45.01-.91-.01-1.37-.03-.97-.02-1.95.01-2.92a3.57,3.57,0,0,0-.01-.46c-.02-.56-.01-.53.51-.66a6.327,6.327,0,0,1,2.6.02c.25.04.29.08.31.34s-.03.53-.03.79c.03,3.25.1,6.5-.02,9.75a23.82,23.82,0,0,0,.03,2.39c.02.35.01.71.01,1.06a1.919,1.919,0,0,0,.1.75,1.339,1.339,0,0,0,.72.79,2.251,2.251,0,0,0,2.2-.21.893.893,0,0,0,.42-.69,13.676,13.676,0,0,0,.03-1.92c-.05-1.82-.05-3.64.02-5.46.06-1.53.01-3.06.02-4.6,0-.88.01-1.77.06-2.65.01-.23.1-.32.3-.35l.37-.06c.39-.05.78-.1,1.17-.13a3.052,3.052,0,0,1,1.16.13c.35.1.4.16.42.53.02.39,0,.78-.01,1.18-.04.86-.14,1.72-.1,2.58C137.95,66.88,137.98,67.43,137.97,67.99Z" fill="#fff"/>
      <path id="Path_1146" data-name="Path 1146" d="M76.65,62.06c.63,0,1.27.02,1.9,0,.91-.03,1.82.1,2.73.04.16-.01.24.06.27.23a6.352,6.352,0,0,1,.08,2.34,5.51,5.51,0,0,1-.09.71c-.08.27-.07.29-.36.27-.7-.04-1.39.01-2.09-.03-1.18-.07-2.35-.02-3.53-.05-.23,0-.46,0-.68-.01-.15-.01-.24.03-.22.21a16.249,16.249,0,0,1-.1,1.97,8.049,8.049,0,0,0,.09,2.08c.07.31.08.32.4.31,1.52-.04,3.04-.02,4.56-.01.36,0,.36,0,.43.36a8.167,8.167,0,0,1,.05,2.61c-.03.19-.1.3-.31.29-.15-.01-.3,0-.46,0-1.43-.07-2.86-.03-4.29,0-.19,0-.3.03-.31.26a31.172,31.172,0,0,0-.05,4.1c.01.16.04.25.24.25,1.57.01,3.14.13,4.71.1.59-.01,1.18-.07,1.77-.12.16-.01.17.08.19.17a5.448,5.448,0,0,1,.09,1.93,8.1,8.1,0,0,1-.13,1.09c-.07.23-.06.24-.29.17a1.953,1.953,0,0,0-.34-.03c-.97-.02-1.95-.03-2.92-.06a13.185,13.185,0,0,0-1.78.09,37.85,37.85,0,0,1-4.52.11c-.32,0-.39-.09-.4-.41-.01-.29-.01-.58-.02-.87-.03-1.57-.07-3.14-.08-4.71a26.061,26.061,0,0,1,.08-2.65,3.129,3.129,0,0,0-.01-.53c-.05-.74-.07-1.49-.05-2.23.03-1.15.04-2.3,0-3.46-.01-.39,0-.78,0-1.17,0-.94,0-1.87.01-2.81,0-.37.07-.43.44-.46,1.29-.11,2.58-.05,3.87-.05.36-.02.74-.02,1.12-.03Z" fill="#fff"/>
      <path id="Path_1147" data-name="Path 1147" d="M47.38,81.51a9.46,9.46,0,0,1-1.15-.04,4.672,4.672,0,0,1-1.59-.76,3.84,3.84,0,0,1-1.62-2.28,10.476,10.476,0,0,1-.24-2.9c.07-.74-.01-.65.75-.77a6.7,6.7,0,0,1,1.55.02c.21.02.43.05.64.05.4-.01.47.12.46.5-.02.45,0,.91.01,1.37a2.6,2.6,0,0,0,.22.99.982.982,0,0,0,.53.51,1.862,1.862,0,0,0,2.33-.48,1.071,1.071,0,0,0,.34-.77,2.885,2.885,0,0,0-1-2.39c-.77-.6-1.49-1.25-2.21-1.9-.86-.78-1.75-1.52-2.59-2.32a3.414,3.414,0,0,1-.96-1.94,7.2,7.2,0,0,1,.24-3.51,3.952,3.952,0,0,1,.71-1.24A5.447,5.447,0,0,1,46.64,62a4.7,4.7,0,0,1,1.54-.16,11.516,11.516,0,0,1,1.17.09,1.506,1.506,0,0,1,.9.37.236.236,0,0,0,.09.06,3.69,3.69,0,0,1,1.45,1.07,4.556,4.556,0,0,1,1.08,1.93,7.659,7.659,0,0,1,.16,3.16.215.215,0,0,1-.2.23c-.09.01-.18.03-.26.04-.63.02-1.27.05-1.9.04a4.093,4.093,0,0,1-.82-.16.232.232,0,0,1-.2-.27c.01-.21.01-.43.02-.65a4.377,4.377,0,0,0-.15-1.35,1.562,1.562,0,0,0-.44-.78.512.512,0,0,0-.43-.19.468.468,0,0,1-.26-.05,1.145,1.145,0,0,0-.99.01c-.12.05-.24.08-.36.12a1.119,1.119,0,0,0-.83,1.24,2.961,2.961,0,0,0,.47,1.43,8,8,0,0,0,2.09,2.17,14.7,14.7,0,0,1,1.7,1.44c.23.23.48.45.72.67a6.023,6.023,0,0,1,1.33,1.87,5.241,5.241,0,0,1,.28,3.51c-.04.2-.12.39-.16.59a2.938,2.938,0,0,1-.76,1.42c-.13.14-.2.32-.34.45a2.03,2.03,0,0,1-.74.52c-.24.08-.41.28-.66.36A9.053,9.053,0,0,1,47.38,81.51Z" fill="#fff"/>
      <path id="Path_1148" data-name="Path 1148" d="M88.81,71.7c-.04,1.03,0,2.13.04,3.23a17.265,17.265,0,0,0,.04,1.9,1.318,1.318,0,0,0,.72,1.13,1.638,1.638,0,0,0,1.79-.03,1.9,1.9,0,0,1,.4-.21.838.838,0,0,0,.51-.78,8.583,8.583,0,0,1,.1-.87,2.886,2.886,0,0,0,.01-.83c-.06-.31.01-.39.32-.49a4.16,4.16,0,0,1,2.1-.13,3.725,3.725,0,0,0,.67.09.2.2,0,0,1,.23.23A13.047,13.047,0,0,1,95.58,78a3.657,3.657,0,0,1-1.56,2.38c-.25.15-.47.35-.72.5a5.329,5.329,0,0,1-2.14.61,10.139,10.139,0,0,1-2.2-.09,3.016,3.016,0,0,1-1.66-.69,5.3,5.3,0,0,1-.99-1.08,4.329,4.329,0,0,1-.88-2.29c-.06-1.18-.06-2.35-.04-3.53a18.4,18.4,0,0,0-.06-2.23,5.7,5.7,0,0,1,.05-1.7.379.379,0,0,0,0-.15c-.05-.9.02-1.8.03-2.7a9.566,9.566,0,0,1,.49-2.6,6.1,6.1,0,0,1,.57-1.07.882.882,0,0,1,.37-.32c.46-.26.94-.5,1.39-.77a3.969,3.969,0,0,1,2.06-.4,8.76,8.76,0,0,1,1.44.13,2.6,2.6,0,0,0,.26.03,2.7,2.7,0,0,1,1.74.72,7.245,7.245,0,0,1,1,1.07,3.719,3.719,0,0,1,.74,1.76,12.739,12.739,0,0,1,.12,2.69c-.01.21-.11.27-.28.28a19.959,19.959,0,0,1-2.05.11,5.115,5.115,0,0,1-.78-.15.249.249,0,0,1-.21-.3c.02-.4.02-.81.03-1.22a2.754,2.754,0,0,0-.24-1.1.859.859,0,0,0-.41-.43,2.225,2.225,0,0,0-2.11-.06,1.239,1.239,0,0,0-.72.92,3.519,3.519,0,0,0-.07.79A41.225,41.225,0,0,1,88.81,71.7Z" fill="#fff"/>
      <path id="Path_1149" data-name="Path 1149" d="M57.07,77.94c0-.66-.01-1.32,0-1.98.01-.42-.09-.84-.07-1.25.08-1.54-.02-3.09.11-4.63a7.847,7.847,0,0,0,.01-.84c-.01-1,0-2-.01-3a17.123,17.123,0,0,0-.09-2.58,8.418,8.418,0,0,1-.01-1.33c0-.18.12-.27.37-.28a6.261,6.261,0,0,1,1.06.03,7.955,7.955,0,0,0,1.29.05,22.9,22.9,0,0,1,2.62.03,8.727,8.727,0,0,1,2.96.75.959.959,0,0,1,.37.26,6.308,6.308,0,0,1,1.2,1.73,6.646,6.646,0,0,1,.4,2.72,15.174,15.174,0,0,1-.26,2.6,6.43,6.43,0,0,1-.37,1.15,1.049,1.049,0,0,1-.27.41,5.729,5.729,0,0,1-3.13,1.74,13.064,13.064,0,0,1-2.16.14c-.66,0-.66,0-.69.66-.05,1.25-.07,2.51-.06,3.76.01.94-.02,1.87,0,2.81.01.22-.08.29-.28.35a5.571,5.571,0,0,1-2.78.04c-.14-.02-.15-.11-.16-.21a8.653,8.653,0,0,1-.08-1.25v-1.9C57.06,77.94,57.07,77.94,57.07,77.94ZM60.41,67.5h-.02l-.03.42a11.252,11.252,0,0,0,.04,2.01c.01.11-.02.24.15.27a5.128,5.128,0,0,0,2.69-.18.654.654,0,0,0,.4-.43,2.4,2.4,0,0,0,.19-.92,1.231,1.231,0,0,1,.04-.38,3.414,3.414,0,0,0-.35-2.32.726.726,0,0,0-.51-.41c-.11-.03-.22-.06-.33-.08a7.955,7.955,0,0,0-2.01-.02c-.31.03-.27.07-.27.29C60.42,66.33,60.41,66.92,60.41,67.5Z" fill="#fff"/>
      <path id="Path_1150" data-name="Path 1150" d="M103.53,62.07c1.25,0,2.51-.02,3.76.01a21.175,21.175,0,0,0,2.39.02.256.256,0,0,1,.29.19,3.636,3.636,0,0,1-.03,2.84.337.337,0,0,1-.36.21c-.97-.06-1.95.04-2.92,0-.13,0-.29-.1-.4-.01-.13.11-.1.31-.1.47,0,1.1-.01,2.2.01,3.3.01.57-.02,1.14-.03,1.71a6.756,6.756,0,0,0,.07,1.35,3.441,3.441,0,0,1,.04.64c-.02,1.43-.09,2.86-.07,4.29.01.71.01,1.42-.01,2.13-.02.66-.06,1.31-.08,1.97,0,.15-.05.21-.21.25a7.049,7.049,0,0,1-2.63,0,2.532,2.532,0,0,1-.36-.12.2.2,0,0,1-.14-.23c.07-1.21-.07-2.43.02-3.64.14-2.02.09-4.05.03-6.07-.04-1.47.07-2.93.03-4.4-.01-.43.1-.85.08-1.29-.01-.31-.01-.32-.32-.32-.72,0-1.44.02-2.16.03a6.535,6.535,0,0,1-1.17-.02.334.334,0,0,1-.32-.3,5.381,5.381,0,0,1-.02-2,7.313,7.313,0,0,1,.18-.78.26.26,0,0,1,.29-.23c.28,0,.56-.02.83-.02h3.34C103.53,62.05,103.53,62.06,103.53,62.07Z" fill="#fff"/>
    </g>
  </g>
</svg>
